<svg width="80" height="80" viewBox="0 0 80 80" fill="none" xmlns="http://www.w3.org/2000/svg">
<g clip-path="url(#clip0_80_30990)">
<path fill-rule="evenodd" clip-rule="evenodd" d="M8.60254 38.0347L13.1814 33.601L46.232 1.60097C47.519 0.355985 49.6201 0.36134 50.8989 1.61435L57.8566 8.4256C57.8566 8.4256 53.1209 14.7174 59.0144 20.4872C64.8913 26.2409 71.1615 21.451 71.1615 21.451L78.3557 28.4925C79.6345 29.7455 79.629 31.7911 78.342 33.036L31.5025 78.3854C30.2155 79.6304 28.1144 79.6251 26.8356 78.3721L19.6414 71.3306C19.6414 71.3306 24.4238 65.4189 18.5469 59.6652C12.6534 53.8955 8.60254 38.032 8.60254 38.032V38.0347Z" fill="#4279B6"/>
<path d="M29.1758 79.9865H29.1648C28.0978 79.9838 27.0967 79.5795 26.3487 78.8459L19.1545 71.8044C18.9097 71.5635 18.8877 71.1833 19.1022 70.9182C19.281 70.696 23.4254 65.3921 18.06 60.1391C12.1005 54.3051 8.1019 38.8513 7.93414 38.1953C7.87639 37.9677 7.94514 37.7241 8.11565 37.5581L45.7478 1.12704C47.3071 -0.383 49.8372 -0.374968 51.3882 1.1431L58.346 7.95435C58.5852 8.18728 58.6127 8.55676 58.412 8.82182C58.2332 9.06011 54.1053 14.7335 59.5037 20.0159C61.7671 22.2301 64.3384 23.0548 67.149 22.4738C69.2693 22.032 70.7241 20.9369 70.7379 20.9262C71.0129 20.7174 71.4034 20.7388 71.6509 20.9798L78.8451 28.0213C80.3962 29.5394 80.3879 32.0025 78.8286 33.5126L31.9891 78.862C31.2384 79.5875 30.2401 79.9865 29.1786 79.9865H29.1758ZM20.5323 71.2529L27.3222 77.9008C27.8118 78.3801 28.4663 78.6451 29.1676 78.6478H29.1758C29.8743 78.6478 30.5261 78.3854 31.0184 77.9115L77.8578 32.5621C78.8781 31.5742 78.8836 29.9597 77.8688 28.9637L71.0899 22.3265C68.5103 24.0025 63.1944 25.5233 58.5302 20.9584C53.2638 15.8017 55.9809 10.1819 56.9847 8.51928L50.4147 2.08554C49.3999 1.09223 47.7416 1.08688 46.7186 2.07483L9.36694 38.2382C10.0132 40.6317 13.8303 54.1016 19.0362 59.194C22.2868 62.3774 22.4271 65.625 21.9733 67.791C21.6406 69.3787 20.953 70.6103 20.5323 71.2529Z" fill="#0E1721"/>
<path d="M42.9592 23.0469C42.7474 23.0469 42.5357 22.9692 42.3734 22.8112L34.0544 14.6667C33.7326 14.3534 33.7354 13.8447 34.0572 13.5315C34.3789 13.2182 34.9014 13.2209 35.2232 13.5341L43.5422 21.6787C43.864 21.992 43.8612 22.5007 43.5395 22.8139C43.3799 22.9692 43.1682 23.0469 42.9564 23.0469H42.9592Z" fill="#0E1721"/>
<path d="M54.1984 34.0508C53.9866 34.0508 53.7749 33.9732 53.6126 33.8152L45.6814 26.0508C45.3596 25.7376 45.3623 25.2289 45.6841 24.9156C46.0059 24.6024 46.5284 24.605 46.8501 24.9183L54.7814 32.6827C55.1032 32.9959 55.1004 33.5046 54.7786 33.8179C54.6191 33.9732 54.4074 34.0508 54.1956 34.0508H54.1984Z" fill="#0E1721"/>
<path d="M64.7843 44.4123C64.5726 44.4123 64.3608 44.3346 64.1985 44.1767L56.2673 36.4123C55.9455 36.099 55.9483 35.5903 56.27 35.2771C56.5918 34.9638 57.1143 34.9665 57.4361 35.2797L65.3673 43.0441C65.6891 43.3574 65.6863 43.8661 65.3646 44.1793C65.2051 44.3346 64.9933 44.4123 64.7816 44.4123H64.7843Z" fill="#0E1721"/>
<path fill-rule="evenodd" clip-rule="evenodd" d="M70.0474 79.3305H3.9876C2.17255 79.3305 0.6875 77.8847 0.6875 76.1177V66.5113C0.6875 66.5113 8.60225 65.3011 8.60225 57.1645C8.60225 49.028 0.6875 48.1418 0.6875 48.1418V38.2114C0.6875 36.4443 2.17255 34.9985 3.9876 34.9985H70.0474C71.8625 34.9985 73.3475 36.4443 73.3475 38.2114V48.1418C73.3475 48.1418 65.6748 49.0494 65.6748 57.1645C65.6748 65.2797 73.3475 66.5113 73.3475 66.5113V76.1177C73.3475 77.8847 71.8625 79.3305 70.0474 79.3305Z" fill="#4279B6"/>
<path d="M70.0474 79.9999H3.98762C1.78756 79.9999 0 78.2596 0 76.1177V66.5113C0 66.182 0.247508 65.9008 0.580268 65.85C0.877277 65.8045 7.91475 64.6157 7.91475 57.1646C7.91475 49.7134 0.904778 48.8433 0.605019 48.8058C0.261258 48.7656 0 48.4792 0 48.1418V38.2114C0 36.0695 1.78756 34.3292 3.98762 34.3292H70.0474C72.2475 34.3292 74.0351 36.0695 74.0351 38.2114V48.1418C74.0351 48.4792 73.7766 48.7656 73.4301 48.8058C73.144 48.8406 66.3623 49.7563 66.3623 57.1646C66.3623 64.5729 73.1688 65.8071 73.4575 65.8527C73.7903 65.9062 74.0351 66.1846 74.0351 66.514V76.1204C74.0351 78.2623 72.2475 80.0026 70.0474 80.0026V79.9999ZM1.37504 67.0468V76.1177C1.37504 77.5207 2.54658 78.6612 3.98762 78.6612H70.0474C71.4885 78.6612 72.66 77.5207 72.66 76.1177V67.0414C70.7845 66.5434 64.9873 64.4149 64.9873 57.1646C64.9873 49.9142 70.7515 48.0294 72.66 47.5929V38.2114C72.66 36.8085 71.4885 35.6679 70.0474 35.6679H3.98762C2.54658 35.6679 1.37504 36.8085 1.37504 38.2114V47.5876C3.32485 48.016 9.28979 49.9223 9.28979 57.1646C9.28979 64.4069 3.29185 66.5541 1.37504 67.0468Z" fill="#0E1721"/>
<path d="M21.2586 79.941C20.8021 79.941 20.4336 79.5822 20.4336 79.1378V67.6518C20.4336 67.2074 20.8021 66.8486 21.2586 66.8486C21.7151 66.8486 22.0836 67.2074 22.0836 67.6518V79.1378C22.0836 79.5822 21.7151 79.941 21.2586 79.941Z" fill="#0E1721"/>
<path d="M21.2586 63.1753C20.8021 63.1753 20.4336 62.8165 20.4336 62.3721V51.4216C20.4336 50.9772 20.8021 50.6184 21.2586 50.6184C21.7151 50.6184 22.0836 50.9772 22.0836 51.4216V62.3721C22.0836 62.8165 21.7151 63.1753 21.2586 63.1753Z" fill="#0E1721"/>
<path d="M21.2586 46.9424C20.8021 46.9424 20.4336 46.5836 20.4336 46.1392V35.1887C20.4336 34.7443 20.8021 34.3855 21.2586 34.3855C21.7151 34.3855 22.0836 34.7443 22.0836 35.1887V46.1392C22.0836 46.5836 21.7151 46.9424 21.2586 46.9424Z" fill="#0E1721"/>
<path d="M39.5521 70.1123C39.4146 70.1123 39.2743 70.0775 39.1451 70.0079C38.7491 69.7884 38.6088 69.2984 38.8343 68.9129L53.3878 43.9651C53.6133 43.5795 54.1165 43.4457 54.5125 43.6625C54.9086 43.8821 55.0488 44.372 54.8233 44.7576L40.2698 69.7054C40.1186 69.9651 39.8381 70.1123 39.5521 70.1123Z" fill="#0E1721"/>
<path d="M42.3566 51.4029C44.5771 51.4029 46.3772 49.6504 46.3772 47.4885C46.3772 45.3267 44.5771 43.5742 42.3566 43.5742C40.136 43.5742 38.3359 45.3267 38.3359 47.4885C38.3359 49.6504 40.136 51.4029 42.3566 51.4029Z" fill="#FCCD28"/>
<path d="M42.3564 52.2061C39.6861 52.2061 37.5107 50.0909 37.5107 47.4885C37.5107 44.8861 39.6833 42.771 42.3564 42.771C45.0295 42.771 47.202 44.8861 47.202 47.4885C47.202 50.0909 45.0295 52.2061 42.3564 52.2061ZM42.3564 44.3801C40.5936 44.3801 39.1608 45.775 39.1608 47.4912C39.1608 49.2074 40.5936 50.6023 42.3564 50.6023C44.1192 50.6023 45.552 49.2074 45.552 47.4912C45.552 45.775 44.1192 44.3801 42.3564 44.3801Z" fill="#0E1721"/>
<path d="M51.0529 70.7524C53.2734 70.7524 55.0735 68.9999 55.0735 66.838C55.0735 64.6762 53.2734 62.9237 51.0529 62.9237C48.8323 62.9237 47.0322 64.6762 47.0322 66.838C47.0322 68.9999 48.8323 70.7524 51.0529 70.7524Z" fill="#FCCD28"/>
<path d="M51.0527 71.5529C48.3823 71.5529 46.207 69.4377 46.207 66.8353C46.207 64.2329 48.3796 62.1178 51.0527 62.1178C53.7258 62.1178 55.8983 64.2329 55.8983 66.8353C55.8983 69.4377 53.7258 71.5529 51.0527 71.5529ZM51.0527 63.7269C49.2899 63.7269 47.8571 65.1218 47.8571 66.838C47.8571 68.5542 49.2899 69.9491 51.0527 69.9491C52.8155 69.9491 54.2483 68.5542 54.2483 66.838C54.2483 65.1218 52.8155 63.7269 51.0527 63.7269Z" fill="#0E1721"/>
</g>
<defs>
<clipPath id="clip0_80_30990">
<rect width="80" height="80" fill="white"/>
</clipPath>
</defs>
</svg>
